<svg xmlns="http://www.w3.org/2000/svg" viewBox="0 0 512 512">
  <defs>
    <linearGradient id="wood" x1="0" y1="0" x2="1" y2="1"><stop offset="0" stop-color="#9a5a2e"/><stop offset="0.5" stop-color="#6e3a1a"/><stop offset="1" stop-color="#4a230c"/></linearGradient>
    <radialGradient id="felt" cx="0.5" cy="0.4" r="0.75"><stop offset="0" stop-color="#3fa45e"/><stop offset="0.7" stop-color="#22743c"/><stop offset="1" stop-color="#14502a"/></radialGradient>
    <radialGradient id="y" cx="0.35" cy="0.3" r="0.8"><stop offset="0" stop-color="#ffe58a"/><stop offset="0.55" stop-color="#f2b80f"/><stop offset="1" stop-color="#a8740a"/></radialGradient>
    <radialGradient id="g" cx="0.35" cy="0.3" r="0.8"><stop offset="0" stop-color="#7ee0a0"/><stop offset="0.55" stop-color="#14884a"/><stop offset="1" stop-color="#08431f"/></radialGradient>
    <radialGradient id="o" cx="0.35" cy="0.3" r="0.8"><stop offset="0" stop-color="#ffc28a"/><stop offset="0.55" stop-color="#f07a1a"/><stop offset="1" stop-color="#9a4508"/></radialGradient>
    <radialGradient id="b" cx="0.35" cy="0.3" r="0.8"><stop offset="0" stop-color="#8fb2ff"/><stop offset="0.55" stop-color="#2456c4"/><stop offset="1" stop-color="#0f2a6e"/></radialGradient>
    <radialGradient id="p" cx="0.35" cy="0.3" r="0.8"><stop offset="0" stop-color="#c49aff"/><stop offset="0.55" stop-color="#6a34a8"/><stop offset="1" stop-color="#331660"/></radialGradient>
    <radialGradient id="r" cx="0.35" cy="0.3" r="0.8"><stop offset="0" stop-color="#ff8a7a"/><stop offset="0.55" stop-color="#d42a20"/><stop offset="1" stop-color="#7e120c"/></radialGradient>
    <radialGradient id="w" cx="0.35" cy="0.3" r="0.8"><stop offset="0" stop-color="#ffffff"/><stop offset="0.55" stop-color="#f1eee4"/><stop offset="1" stop-color="#b9b3a0"/></radialGradient>
  </defs>
  <!-- the table: wooden rails round green felt -->
  <rect width="512" height="512" rx="104" fill="url(#wood)"/>
  <rect x="44" y="44" width="424" height="424" rx="40" fill="#123d20"/>
  <rect x="56" y="56" width="400" height="400" rx="30" fill="url(#felt)"/>
  <!-- sights on the rails -->
  <g fill="#f3e6c4" opacity="0.85">
    <circle cx="190" cy="24" r="6"/><circle cx="322" cy="24" r="6"/><circle cx="190" cy="488" r="6"/><circle cx="322" cy="488" r="6"/>
    <circle cx="24" cy="190" r="6"/><circle cx="24" cy="322" r="6"/><circle cx="488" cy="190" r="6"/><circle cx="488" cy="322" r="6"/>
  </g>
  <!-- corner pockets -->
  <g fill="#050805"><circle cx="66" cy="66" r="30"/><circle cx="446" cy="66" r="30"/><circle cx="66" cy="446" r="30"/><circle cx="446" cy="446" r="30"/></g>
  <!-- the rack and the cue ball lined up on it -->
  <circle cx="173" cy="168" r="44" fill="#000" fill-opacity="0.35"/>
  <circle cx="168" cy="160" r="44" fill="url(#y)"/>
  <circle cx="163" cy="155" r="17.6" fill="#fbf7ec"/>
  <text x="163" y="165" text-anchor="middle" font-family="system-ui, -apple-system, Segoe UI, Roboto, sans-serif" font-weight="800" font-size="23" fill="#141414">1</text>
  <ellipse cx="150.4" cy="138.0" rx="13.2" ry="6.6" fill="#fff" opacity="0.45" transform="rotate(-35 150.4 138.0)"/>
  <circle cx="261" cy="168" r="44" fill="#000" fill-opacity="0.35"/>
  <circle cx="256" cy="160" r="44" fill="url(#g)"/>
  <circle cx="251" cy="155" r="17.6" fill="#fbf7ec"/>
  <text x="251" y="165" text-anchor="middle" font-family="system-ui, -apple-system, Segoe UI, Roboto, sans-serif" font-weight="800" font-size="23" fill="#141414">6</text>
  <ellipse cx="238.4" cy="138.0" rx="13.2" ry="6.6" fill="#fff" opacity="0.45" transform="rotate(-35 238.4 138.0)"/>
  <circle cx="349" cy="168" r="44" fill="#000" fill-opacity="0.35"/>
  <circle cx="344" cy="160" r="44" fill="url(#o)"/>
  <circle cx="339" cy="155" r="17.6" fill="#fbf7ec"/>
  <text x="339" y="165" text-anchor="middle" font-family="system-ui, -apple-system, Segoe UI, Roboto, sans-serif" font-weight="800" font-size="23" fill="#141414">5</text>
  <ellipse cx="326.4" cy="138.0" rx="13.2" ry="6.6" fill="#fff" opacity="0.45" transform="rotate(-35 326.4 138.0)"/>
  <circle cx="217" cy="244" r="44" fill="#000" fill-opacity="0.35"/>
  <circle cx="212" cy="236" r="44" fill="url(#b)"/>
  <circle cx="207" cy="231" r="17.6" fill="#fbf7ec"/>
  <text x="207" y="241" text-anchor="middle" font-family="system-ui, -apple-system, Segoe UI, Roboto, sans-serif" font-weight="800" font-size="23" fill="#141414">2</text>
  <ellipse cx="194.4" cy="214.0" rx="13.2" ry="6.6" fill="#fff" opacity="0.45" transform="rotate(-35 194.4 214.0)"/>
  <circle cx="305" cy="244" r="44" fill="#000" fill-opacity="0.35"/>
  <circle cx="300" cy="236" r="44" fill="url(#p)"/>
  <circle cx="295" cy="231" r="17.6" fill="#fbf7ec"/>
  <text x="295" y="241" text-anchor="middle" font-family="system-ui, -apple-system, Segoe UI, Roboto, sans-serif" font-weight="800" font-size="23" fill="#141414">4</text>
  <ellipse cx="282.4" cy="214.0" rx="13.2" ry="6.6" fill="#fff" opacity="0.45" transform="rotate(-35 282.4 214.0)"/>
  <circle cx="261" cy="320" r="44" fill="#000" fill-opacity="0.35"/>
  <circle cx="256" cy="312" r="44" fill="url(#r)"/>
  <circle cx="251" cy="307" r="17.6" fill="#fbf7ec"/>
  <text x="251" y="317" text-anchor="middle" font-family="system-ui, -apple-system, Segoe UI, Roboto, sans-serif" font-weight="800" font-size="23" fill="#141414">3</text>
  <ellipse cx="238.4" cy="290.0" rx="13.2" ry="6.6" fill="#fff" opacity="0.45" transform="rotate(-35 238.4 290.0)"/>
  <path d="M256 372 V396" stroke="#fff" stroke-opacity="0.45" stroke-width="5" stroke-linecap="round" stroke-dasharray="2 9"/>
  <circle cx="261" cy="420" r="34" fill="#000" fill-opacity="0.35"/>
  <circle cx="256" cy="412" r="34" fill="url(#w)"/>
  <ellipse cx="242.4" cy="395.0" rx="10.2" ry="5.1" fill="#fff" opacity="0.45" transform="rotate(-35 242.4 395.0)"/>
  <circle cx="249" cy="404" r="5" fill="#c81e24"/>
</svg>
